<?xml version="1.0" encoding="UTF-8" standalone="no"?><!DOCTYPE svg PUBLIC "-//W3C//DTD SVG 1.1//EN" "http://www.w3.org/Graphics/SVG/1.1/DTD/svg11.dtd"><svg width="100%" height="100%" viewBox="0 0 24342 13334" version="1.1" xmlns="http://www.w3.org/2000/svg" xmlns:xlink="http://www.w3.org/1999/xlink" xml:space="preserve" xmlns:serif="http://www.serif.com/" style="fill-rule:evenodd;clip-rule:evenodd;stroke-linejoin:round;stroke-miterlimit:2;"><g><path d="M8093.976,6128.664c90.675,-380.468 90.675,-380.461 467.67,-380.398c178.509,0.028 357.011,0.007 557.574,0.007c-51.184,222.166 -96.008,416.708 -145.928,633.368l2492.487,0l0,919.904l-2518.367,0c90.598,293.3 171.857,556.338 262.517,849.839c-279.197,0 -551.241,3.514 -822.904,-5.104c-29.13,-0.924 -66.197,-68.641 -82.411,-111.826c-213.069,-567.428 -301.584,-1151 -219.416,-1755.744c6.048,-44.553 5.347,-90.015 8.777,-150.053l0,0.007Z" style="fill:#0a0a0a;fill-rule:nonzero;"/><path d="M8703.22,5408.934l-445.658,0c153.816,-278.412 284.127,-523.451 426.326,-761.387c20.436,-34.199 97.945,-46.941 149.414,-47.816c270.579,-4.59 541.374,-6.361 811.883,-0.146c109.861,2.528 151.101,-32.498 145.629,-144.379c-7.68,-157.108 -1.937,-314.875 -1.937,-497.495l-452.47,0c-3.736,-16.936 -7.465,-33.873 -11.201,-50.816c606.522,-544.853 1310.073,-879.615 2145.399,-980.476l0,955.339c-155.49,0 -305.542,0.083 -455.588,-0.021c-317.069,-0.222 -317.09,-0.264 -317.243,324.541c-0.056,122.617 -0.007,245.234 -0.007,386.794l769.421,0l0,815.848l-2763.955,0l-0.014,0.014Z" style="fill:#0a0a0a;fill-rule:nonzero;"/><path d="M11482.001,8422.359c-0.007,680.698 -0.007,1344.473 -0.007,2009.172c-1290.949,-73.933 -2488.293,-996.982 -2925.458,-1940.51c253.323,0 499.717,-4.465 745.645,4.146c43.969,1.542 96.244,49.254 127.408,89.147c303.64,388.689 674.073,688.892 1159.756,891.968l0,-1788.381l892.656,0c0,238.317 0,477.92 -0.007,734.458l0.007,0Z" style="fill:#0a0a0a;fill-rule:nonzero;"/><path d="M13874.536,3486.899c1482.29,997.024 2095.118,2804.782 1519.003,4452.922c-582.461,1666.292 -2194.305,2481.89 -3284.934,2493.57l0,-7533.45c643.429,33.442 1220.412,240.911 1765.931,586.957Z" style="fill:#fa680a;"/></g></svg>