<svg xmlns="http://www.w3.org/2000/svg" viewBox="0 0 171 122" fill="#dd5417">
<rect x="3.0" y="97.0" width="1.4" height="2.0"/>
<rect x="5.0" y="97.0" width="1.5" height="2.0"/>
<rect x="7.0" y="95.0" width="1.4" height="2.0"/>
<rect x="9.0" y="93.2" width="1.4" height="3.8"/>
<rect x="11.0" y="93.0" width="1.5" height="5.7"/>
<rect x="13.0" y="91.1" width="1.4" height="5.9"/>
<rect x="13.0" y="97.5" width="1.0" height="0.9"/>
<rect x="15.0" y="91.0" width="1.5" height="10.0"/>
<rect x="17.0" y="91.0" width="1.5" height="12.0"/>
<rect x="19.0" y="91.3" width="1.1" height="1.3"/>
<rect x="19.0" y="97.0" width="1.5" height="7.9"/>
<rect x="21.0" y="101.0" width="1.2" height="2.0"/>
<rect x="79.0" y="63.3" width="1.1" height="1.3"/>
<rect x="79.0" y="65.0" width="1.2" height="2.0"/>
<rect x="79.0" y="81.0" width="1.4" height="4.0"/>
<rect x="81.0" y="65.0" width="1.3" height="4.0"/>
<rect x="81.0" y="71.5" width="1.0" height="1.0"/>
<rect x="81.0" y="73.3" width="1.1" height="1.3"/>
<rect x="81.0" y="75.2" width="1.1" height="1.7"/>
<rect x="81.0" y="81.0" width="1.5" height="4.0"/>
<rect x="83.0" y="67.0" width="1.4" height="12.0"/>
<rect x="83.0" y="81.0" width="1.5" height="2.0"/>
<rect x="85.0" y="67.0" width="1.5" height="16.0"/>
<rect x="87.0" y="67.0" width="1.4" height="16.0"/>
<rect x="89.0" y="71.0" width="1.5" height="10.0"/>
<rect x="91.0" y="75.5" width="1.1" height="1.1"/>
<rect x="91.0" y="77.0" width="1.5" height="4.0"/>
<rect x="93.0" y="75.0" width="1.4" height="4.0"/>
<rect x="95.0" y="75.4" width="1.1" height="1.2"/>
<rect x="121.0" y="9.4" width="1.1" height="1.2"/>
<rect x="123.0" y="9.0" width="1.2" height="2.0"/>
<rect x="125.0" y="9.0" width="1.2" height="1.9"/>
<rect x="127.0" y="7.0" width="1.5" height="4.0"/>
<rect x="127.0" y="117.0" width="1.3" height="2.0"/>
<rect x="129.0" y="7.0" width="1.3" height="3.7"/>
<rect x="129.0" y="97.5" width="1.1" height="1.1"/>
<rect x="129.0" y="101.4" width="1.1" height="1.1"/>
<rect x="129.0" y="105.5" width="1.0" height="0.9"/>
<rect x="129.0" y="113.2" width="1.4" height="3.8"/>
<rect x="131.0" y="5.0" width="1.2" height="5.7"/>
<rect x="131.0" y="11.4" width="1.1" height="1.2"/>
<rect x="131.0" y="13.4" width="1.1" height="1.2"/>
<rect x="131.0" y="15.4" width="1.1" height="1.2"/>
<rect x="131.0" y="95.0" width="1.2" height="3.8"/>
<rect x="131.0" y="99.2" width="1.1" height="1.6"/>
<rect x="131.0" y="101.4" width="1.1" height="1.3"/>
<rect x="131.0" y="103.4" width="1.1" height="1.3"/>
<rect x="131.0" y="105.1" width="1.2" height="5.9"/>
<rect x="131.0" y="113.0" width="1.5" height="4.0"/>
<rect x="133.0" y="5.0" width="1.3" height="6.0"/>
<rect x="133.0" y="11.3" width="1.1" height="1.4"/>
<rect x="133.0" y="13.3" width="1.1" height="1.3"/>
<rect x="133.0" y="97.2" width="1.5" height="19.8"/>
<rect x="135.0" y="5.0" width="1.4" height="8.0"/>
<rect x="135.0" y="13.4" width="1.1" height="1.3"/>
<rect x="135.0" y="101.0" width="1.4" height="14.0"/>
<rect x="137.0" y="3.0" width="1.4" height="4.0"/>
<rect x="137.0" y="103.2" width="1.5" height="11.8"/>
<rect x="139.0" y="3.1" width="1.2" height="1.8"/>
<rect x="139.0" y="109.0" width="1.5" height="4.0"/>
<rect x="139.0" y="113.4" width="1.1" height="1.2"/>
<rect x="141.0" y="109.0" width="1.5" height="4.0"/>
<rect x="143.0" y="107.2" width="1.5" height="3.8"/>
<rect x="149.0" y="55.5" width="1.0" height="0.9"/>
<rect x="149.0" y="57.1" width="1.1" height="1.7"/>
<rect x="151.0" y="41.5" width="1.0" height="1.0"/>
<rect x="151.0" y="53.2" width="1.4" height="5.8"/>
<rect x="153.0" y="41.1" width="1.2" height="3.8"/>
<rect x="153.0" y="45.5" width="1.1" height="1.1"/>
<rect x="153.0" y="53.0" width="1.5" height="4.0"/>
<rect x="153.0" y="57.6" width="1.0" height="0.9"/>
<rect x="155.0" y="41.0" width="1.2" height="5.9"/>
<rect x="155.0" y="47.2" width="1.3" height="3.8"/>
<rect x="155.0" y="53.0" width="1.5" height="4.0"/>
<rect x="157.0" y="43.0" width="1.5" height="14.0"/>
<rect x="159.0" y="43.0" width="1.5" height="14.0"/>
<rect x="161.0" y="45.0" width="1.4" height="10.0"/>
<rect x="163.0" y="49.0" width="1.4" height="6.0"/>
<rect x="165.0" y="49.0" width="1.5" height="4.0"/>
<rect x="167.0" y="49.0" width="1.5" height="3.7"/>
</svg>