<?xml version="1.0" encoding="UTF-8" standalone="no"?><!DOCTYPE svg PUBLIC "-//W3C//DTD SVG 1.1//EN" "http://www.w3.org/Graphics/SVG/1.1/DTD/svg11.dtd"><svg width="5842" height="3200" viewBox="0 0 5842 3200" version="1.1" xmlns="http://www.w3.org/2000/svg" xmlns:xlink="http://www.w3.org/1999/xlink" xml:space="preserve" xmlns:serif="http://www.serif.com/" style="fill-rule:evenodd;clip-rule:evenodd;stroke-linejoin:round;stroke-miterlimit:2;"><path d="M2533.548,1888.756c-42.694,-0.54 -37.623,5.094 -37.665,-35.178c-0.169,-163.815 0.182,-327.631 -0.434,-491.444c-0.067,-17.669 3.763,-24.028 22.848,-23.846c100.64,0.959 201.558,-4.154 301.878,1.591c133.306,7.633 240.15,72.544 265.786,219.671c16.5,94.689 -3.68,182.136 -76.655,250.718c-46.405,43.611 -103.571,69.794 -166.079,73.194c-102.336,5.567 -205.065,3.907 -309.679,5.295m20.57,-482.402c0.337,26.781 1.989,382.379 -0.143,412.711c-1.112,15.814 4.836,20.164 20.194,19.984c63.171,-0.74 126.356,-0.359 189.536,-0.292c47.547,0.051 93.872,-7.864 137.52,-26.334c59.845,-25.324 102.625,-67.111 117.841,-132.758c7.513,-32.416 10.639,-64.5 6.716,-98.278c-5.415,-46.616 -21.597,-87.575 -53.02,-121.421c-46.143,-49.702 -107.621,-67.575 -172.31,-70.393c-76.227,-3.321 -152.709,-0.691 -229.08,-0.894c-12.477,-0.033 -17.408,5.465 -17.254,17.676Z" style="fill:#fff;fill-rule:nonzero;"/><path d="M4681.998,1884.645c0,0 -139.834,35.861 -297.471,-15.207c-110.647,-35.845 -180.64,-127.947 -180.877,-251.834c-0.154,-80.273 25.433,-148.379 85.301,-201.527c53.673,-47.648 118.752,-73.726 188.967,-83.831c84.51,-12.162 168.469,-8.669 249.057,24.184c8.329,3.395 16.467,7.292 24.544,11.26c4.903,2.408 9.517,5.402 15.947,9.102c-6.287,12.075 -19.186,32.948 -27.138,42.739c-1.62,1.292 -6.383,-0.958 -12.597,-4.172c-67.797,-32.613 -139.987,-38.823 -213.097,-33.365c-69.78,5.209 -134.397,27.502 -185.9,77.399c-36.948,35.796 -56.491,79.853 -62.932,131.91c-7.874,63.646 10.041,118.016 50.047,165.137c32.144,37.861 75.423,60.847 123.251,73.167c96.404,24.834 192.402,21.985 287.697,-7.376c14.067,-4.334 19.618,-11.112 19.375,-25.979c-0.001,-0.193 -0,-0.386 0.003,-0.58c0.61,-39.892 -0.169,-89.385 0.009,-115.837c0.04,-4.428 -0.893,-8.81 -2.733,-12.838c-2.838,-6.189 -8.172,-11.074 -18.768,-10.893c-50.657,0.864 -101.362,-0.616 -151.996,0.749c-22.113,0.596 -18.201,-12.94 -18.531,-25.738c-0.348,-13.527 8.647,-24.03 19.12,-25.161c38.585,-4.168 141.598,0.807 212.393,0.152c14.926,-0.138 18.875,5.143 18.755,19.338c-0.576,68.02 -1.018,136.061 0.245,204.062c0.342,18.431 -9.896,26.026 -21.284,31.726c-16.973,8.496 -101.386,23.414 -101.386,23.414Z" style="fill:#fff;fill-rule:nonzero;"/><path d="M3761.136,1514.764c62.254,123.586 123.788,245.792 187.884,373.083c-23.242,0 -27.072,0.466 -46.958,-0.727c-3.529,-0.349 -9.874,-2.051 -17.544,-8.324c-3.875,-3.093 -7.104,-6.918 -9.504,-11.257c-25.31,-45.513 -38.485,-75.656 -56.904,-114.382c-6.471,-13.605 -14.243,-19.425 -29.964,-19.31c-97.874,0.712 -195.757,0.601 -293.634,0.071c-13.017,-0.07 -19.916,4.168 -25.503,15.835c-18.878,39.429 -39.64,77.968 -58.014,117.62c-7.552,16.297 -17.234,18.767 -35.046,21.286c-37.625,-0.188 -23.363,-0.255 -39.395,-0.255c4.628,-10.206 7.635,-17.451 11.131,-24.452c51.463,-103.067 102.994,-206.1 154.503,-309.143c32.819,-65.652 66.054,-131.103 98.116,-197.123c7.029,-14.474 15.65,-18.291 31.495,-20.174c32.307,-3.839 48.111,8.919 60.566,37.955c20.18,47.047 45.122,92.051 68.771,139.297m-258.944,165.311l278.414,0c-47.15,-96.071 -91.924,-187.301 -138.022,-281.227c-47.737,95.624 -93.09,186.473 -140.393,281.227Z" style="fill:#fff;fill-rule:nonzero;"/><path d="M1854.255,1155.015c213.464,143.581 301.717,403.916 218.751,641.264c-83.88,239.962 -316.001,357.416 -473.062,359.098l0,-1084.889c92.66,4.816 175.751,34.694 254.311,84.528Z" style="fill:#fa680a;fill-rule:nonzero;"/><path d="M1021.799,1535.455c13.058,-54.791 13.058,-54.79 67.349,-54.781c25.707,0.004 51.413,0.001 80.296,0.001c-7.371,31.994 -13.826,60.01 -21.015,91.211l358.942,0l0,132.475l-362.669,0c13.047,42.238 24.749,80.118 37.805,122.385c-40.207,0 -79.384,0.506 -118.506,-0.735c-4.195,-0.133 -9.533,-9.885 -11.868,-16.104c-30.684,-81.715 -43.431,-165.755 -31.598,-252.844c0.871,-6.416 0.77,-12.963 1.264,-21.609Z" style="fill:#fff;fill-rule:nonzero;"/><path d="M1109.536,1431.807c-20.168,0 -37.928,0 -64.179,0c22.151,-40.094 40.917,-75.382 61.395,-109.647c2.943,-4.925 14.105,-6.76 21.517,-6.886c38.966,-0.661 77.963,-0.916 116.919,-0.021c15.821,0.364 21.76,-4.68 20.972,-20.792c-1.106,-22.625 -0.279,-45.345 -0.279,-71.644l-65.16,0c-0.538,-2.439 -1.075,-4.878 -1.613,-7.318c87.345,-78.464 188.663,-126.673 308.958,-141.198l0,137.578c-22.392,0 -44.001,0.012 -65.609,-0.003c-45.661,-0.032 -45.664,-0.038 -45.686,46.737c-0.008,17.658 -0.001,35.316 -0.001,55.702l110.804,0l0,117.49c-131.718,0 -263.673,0 -398.036,0Z" style="fill:#fff;fill-rule:nonzero;"/><path d="M1509.707,1865.769c-0.001,98.027 -0.001,193.617 -0.001,289.34c-185.909,-10.647 -358.338,-143.575 -421.294,-279.452c36.481,0 71.964,-0.643 107.38,0.597c6.332,0.222 13.86,7.093 18.348,12.838c43.727,55.975 97.073,99.207 167.016,128.452l0,-257.544l128.551,0c0,34.32 0,68.825 -0.001,105.769Z" style="fill:#fff;fill-rule:nonzero;"/></svg>