<?xml version="1.0" encoding="UTF-8"?><svg id="Layer_1" xmlns="http://www.w3.org/2000/svg" viewBox="0 0 1116.14 486.48"><defs><style>.cls-1{fill:#ff7e00;}</style></defs><path class="cls-1" d="M1116.14,143.67h-81.5v-28c0-18.79-16.33-34-36.5-34h-90.5c-19.9,0-36,15.21-36,34l-.5,178.32c0,19.54,16.33,35.34,36.5,35.34h90.5c19.92,0,36.04-15.06,36.04-33.67v-24.5h-81.04v-82.5h163v107c0,64.3-48.98,116.33-109.5,116.33h-107c-60.8,0-110-52.03-110-116.33V115.67c0-63.93,49.2-115.67,110-115.67h107c60.52,0,109.5,51.73,109.5,115.67v28Z"/><path class="cls-1" d="M3.48,331.67H45.81l-1-250H3.48V0H174.81c86.23,0,156,76.33,156,170.67v76c0,91.39-69.77,165.33-156,165.33H3.48v-80.33Zm246-93v-68c0-49.19-33.4-89-74.67-89h-47.33l-.67,250h48c41.27,0,74.67-41.6,74.67-93Z"/><path class="cls-1" d="M593.48,329.33h37.33l-10.67-40h-128l-10.67,40h37.33v82.67h-162v-82.67h40L494.81,0h125.33l97.33,329.33h38.67v82.67h-162.67v-82.67Zm-35.33-247.67h-4l-35.33,124h74.67l-35.33-124Z"/><g><path class="cls-1" d="M35.02,453.03c0,10.42-6.2,15.63-18.61,15.63H4.41v-30.94h11.99c12.41,0,18.61,5.1,18.61,15.3Zm-6.95,0c0-1.56-.18-2.96-.54-4.2s-.98-2.28-1.88-3.14c-.89-.86-2.09-1.52-3.6-1.97-1.51-.45-3.4-.68-5.68-.68h-5.16v20.3h5.16c2.26,0,4.15-.23,5.65-.7,1.51-.47,2.71-1.14,3.6-2.03s1.52-1.96,1.89-3.23,.55-2.72,.55-4.35Z"/><path class="cls-1" d="M52.27,445.75c1.69,0,3.21,.13,4.56,.39s2.5,.71,3.45,1.37c.95,.66,1.67,1.55,2.18,2.67,.51,1.12,.76,2.55,.76,4.29v14.2h-6.45v-1.17c-1.07,.55-2.22,.97-3.46,1.27s-2.57,.45-3.98,.45c-1.32,0-2.56-.17-3.69-.5-1.14-.34-2.13-.81-2.96-1.42-.84-.61-1.49-1.34-1.97-2.18s-.72-1.77-.72-2.79c0-5.42,5.25-8.13,15.74-8.13h1.05c-.02-.61-.08-1.14-.18-1.61-.1-.46-.32-.85-.65-1.17-.33-.32-.81-.56-1.43-.73s-1.46-.25-2.51-.25c-1.31,0-2.34,.17-3.1,.52-.76,.34-1.28,.99-1.56,1.95h-6.64c.77-4.77,4.63-7.15,11.58-7.15Zm4.49,12.96h-1.9c-5.51,0-8.27,1.14-8.27,3.42,0,.75,.36,1.34,1.08,1.76s1.68,.63,2.9,.63,2.38-.21,3.5-.62c1.12-.41,2.02-1.02,2.7-1.82v-3.38Z"/><path class="cls-1" d="M81.8,468.71c-.83,.17-1.59,.3-2.27,.38-.69,.08-1.33,.12-1.92,.12-1.53,0-2.74-.15-3.65-.46-.91-.3-1.6-.76-2.08-1.36s-.79-1.36-.92-2.26c-.14-.91-.21-1.96-.21-3.16v-11.04h-2.98v-4.64h2.98v-5.58h6.56v5.58h3.92v4.64h-3.92v11.2c0,.52,.03,.93,.08,1.24s.13,.55,.23,.73,.23,.29,.39,.34c.16,.05,.33,.08,.54,.08,.4,0,.88-.03,1.43-.08s1.16-.13,1.82-.22v4.5Z"/><path class="cls-1" d="M96.72,445.75c1.69,0,3.21,.13,4.56,.39s2.5,.71,3.45,1.37c.95,.66,1.67,1.55,2.18,2.67,.51,1.12,.76,2.55,.76,4.29v14.2h-6.45v-1.17c-1.07,.55-2.22,.97-3.46,1.27s-2.57,.45-3.98,.45c-1.32,0-2.56-.17-3.69-.5-1.14-.34-2.13-.81-2.96-1.42-.84-.61-1.49-1.34-1.97-2.18s-.72-1.77-.72-2.79c0-5.42,5.25-8.13,15.74-8.13h1.05c-.02-.61-.08-1.14-.18-1.61-.1-.46-.32-.85-.65-1.17-.33-.32-.81-.56-1.43-.73s-1.46-.25-2.51-.25c-1.31,0-2.34,.17-3.1,.52-.76,.34-1.28,.99-1.56,1.95h-6.64c.77-4.77,4.63-7.15,11.58-7.15Zm4.49,12.96h-1.9c-5.51,0-8.27,1.14-8.27,3.42,0,.75,.36,1.34,1.08,1.76s1.68,.63,2.9,.63,2.38-.21,3.5-.62c1.12-.41,2.02-1.02,2.7-1.82v-3.38Z"/><path class="cls-1" d="M126.25,468.71c-.83,.17-1.59,.3-2.27,.38-.69,.08-1.33,.12-1.92,.12-1.53,0-2.74-.15-3.65-.46-.91-.3-1.6-.76-2.08-1.36s-.79-1.36-.92-2.26c-.14-.91-.21-1.96-.21-3.16v-11.04h-2.98v-4.64h2.98v-5.58h6.56v5.58h3.92v4.64h-3.92v11.2c0,.52,.03,.93,.08,1.24s.13,.55,.23,.73,.23,.29,.39,.34c.16,.05,.33,.08,.54,.08,.4,0,.88-.03,1.43-.08s1.16-.13,1.82-.22v4.5Z"/><path class="cls-1" d="M153.38,461.66c-.33,1.22-.85,2.3-1.56,3.23-.71,.94-1.56,1.73-2.56,2.37s-2.13,1.12-3.39,1.45c-1.26,.33-2.61,.49-4.04,.49-1.93,0-3.69-.27-5.28-.8-1.59-.53-2.96-1.3-4.09-2.31-1.14-1.01-2.02-2.24-2.65-3.69-.62-1.45-.94-3.1-.94-4.95s.3-3.44,.91-4.89c.61-1.45,1.46-2.68,2.56-3.69,1.1-1.02,2.42-1.79,3.94-2.33,1.53-.54,3.22-.81,5.07-.81s3.63,.27,5.17,.8,2.84,1.3,3.93,2.3c1.08,1,1.92,2.23,2.51,3.68,.59,1.45,.88,3.1,.88,4.95v1.76h-18.14c.33,1.77,1.04,3.09,2.14,3.97,1.09,.88,2.42,1.32,3.98,1.32,.5,0,1-.06,1.5-.19,.51-.12,.97-.31,1.41-.55,.43-.24,.81-.54,1.13-.89,.32-.35,.56-.76,.7-1.23h6.81Zm-6.53-7.1c-.42-1.38-1.11-2.41-2.07-3.09-.96-.69-2.1-1.03-3.42-1.03s-2.44,.34-3.42,1.03-1.67,1.72-2.1,3.09h11Z"/><path class="cls-1" d="M182.93,468.67h-7.78l-7.47-9.91-1.43,1.2v8.72h-6.48v-30.94h6.48v15.42l7.83-6.87h8.52l-10.45,8.67,10.78,13.71Z"/><path class="cls-1" d="M193.69,447.6c1.88-1.23,3.92-1.85,6.12-1.85,6.23,0,9.35,2.85,9.35,8.55v14.37h-6.56v-14.2c0-1.39-.26-2.38-.79-2.98s-1.39-.89-2.61-.89c-1.76,0-3.6,.91-5.51,2.72v15.35h-6.48v-22.38h6.48v1.31Z"/><path class="cls-1" d="M227.57,445.75c1.91,0,3.63,.27,5.17,.8s2.84,1.3,3.93,2.3c1.08,1,1.92,2.23,2.51,3.68,.59,1.45,.88,3.1,.88,4.95s-.3,3.49-.9,4.95c-.6,1.45-1.44,2.68-2.52,3.69s-2.4,1.78-3.94,2.31c-1.54,.53-3.25,.8-5.13,.8s-3.55-.26-5.09-.79-2.85-1.28-3.94-2.27c-1.09-.99-1.94-2.22-2.55-3.68-.61-1.46-.91-3.13-.91-5s.3-3.49,.9-4.95,1.44-2.68,2.52-3.68c1.08-1,2.4-1.77,3.94-2.3,1.54-.53,3.25-.8,5.13-.8Zm0,18.77c.85,0,1.63-.15,2.34-.45,.72-.3,1.33-.74,1.83-1.34s.9-1.33,1.19-2.2,.43-1.9,.43-3.07-.14-2.2-.43-3.07-.68-1.61-1.19-2.19-1.12-1.03-1.83-1.32c-.72-.3-1.5-.45-2.34-.45s-1.65,.15-2.37,.45-1.33,.74-1.83,1.32c-.51,.59-.9,1.32-1.19,2.19-.29,.88-.43,1.9-.43,3.07s.14,2.2,.43,3.07c.28,.88,.68,1.61,1.19,2.2,.51,.59,1.12,1.04,1.83,1.34s1.51,.45,2.37,.45Z"/><path class="cls-1" d="M252.44,468.67h-6.45v-30.94h6.45v30.94Z"/><path class="cls-1" d="M270.86,445.75c1.91,0,3.63,.27,5.17,.8s2.84,1.3,3.93,2.3c1.08,1,1.92,2.23,2.51,3.68,.59,1.45,.88,3.1,.88,4.95s-.3,3.49-.9,4.95c-.6,1.45-1.44,2.68-2.52,3.69s-2.4,1.78-3.94,2.31c-1.54,.53-3.25,.8-5.13,.8s-3.55-.26-5.09-.79-2.85-1.28-3.94-2.27c-1.09-.99-1.94-2.22-2.55-3.68-.61-1.46-.91-3.13-.91-5s.3-3.49,.9-4.95,1.44-2.68,2.52-3.68c1.08-1,2.4-1.77,3.94-2.3,1.54-.53,3.25-.8,5.13-.8Zm0,18.77c.85,0,1.63-.15,2.34-.45,.72-.3,1.33-.74,1.83-1.34s.9-1.33,1.19-2.2,.43-1.9,.43-3.07-.14-2.2-.43-3.07-.68-1.61-1.19-2.19-1.12-1.03-1.83-1.32c-.72-.3-1.5-.45-2.34-.45s-1.65,.15-2.37,.45-1.33,.74-1.83,1.32c-.51,.59-.9,1.32-1.19,2.19-.29,.88-.43,1.9-.43,3.07s.14,2.2,.43,3.07c.28,.88,.68,1.61,1.19,2.2,.51,.59,1.12,1.04,1.83,1.34s1.51,.45,2.37,.45Z"/><path class="cls-1" d="M295.37,470.75c.39,1.55,1.74,2.32,4.05,2.32,1.56,0,2.79-.45,3.68-1.34s1.42-2.28,1.59-4.17c-.88,.55-1.8,.96-2.74,1.23-.95,.27-1.96,.41-3.05,.41-1.8,0-3.4-.28-4.78-.83s-2.55-1.34-3.49-2.36c-.94-1.02-1.65-2.24-2.14-3.67-.49-1.43-.73-3.01-.73-4.75,0-1.84,.29-3.5,.87-4.96s1.38-2.7,2.4-3.73c1.02-1.02,2.22-1.81,3.61-2.36s2.88-.82,4.48-.82c1.05,0,2.04,.1,2.98,.3s1.82,.5,2.65,.89v-.66h6.45v20.62c0,7.23-3.88,10.85-11.64,10.85-1.58,0-3.01-.16-4.29-.48-1.28-.32-2.39-.78-3.34-1.38-.95-.6-1.71-1.34-2.27-2.2s-.92-1.85-1.05-2.94h6.75Zm9.37-18.33c-1.67-1.33-3.46-1.99-5.35-1.99-1.51,0-2.71,.59-3.61,1.78-.9,1.19-1.35,2.98-1.35,5.39,0,2.28,.42,4,1.27,5.17,.85,1.16,2.02,1.75,3.53,1.75,1.93,0,3.77-.98,5.51-2.93v-9.16Z"/><path class="cls-1" d="M332.15,452.57c-.44-1.42-1.77-2.13-4-2.13-.57,0-1.09,.04-1.57,.12-.48,.08-.9,.2-1.25,.35s-.64,.35-.84,.59-.3,.5-.3,.8c0,.23,.05,.43,.15,.6,.1,.16,.35,.32,.74,.48s.98,.32,1.75,.5,1.82,.41,3.14,.69c1.62,.33,3.02,.67,4.2,1.03s2.17,.8,2.96,1.34c.79,.53,1.38,1.18,1.76,1.95,.39,.77,.58,1.72,.58,2.86,0,1.06-.26,2.05-.77,2.95-.52,.91-1.24,1.7-2.18,2.37s-2.07,1.2-3.41,1.58-2.83,.57-4.48,.57c-6.91,0-10.75-2.53-11.52-7.59h6.62c.35,1.94,1.97,2.91,4.85,2.91,1.43,0,2.52-.23,3.27-.7,.74-.47,1.12-1.04,1.12-1.71,0-.31-.08-.57-.23-.79-.16-.21-.46-.41-.92-.59s-1.09-.36-1.9-.55c-.81-.19-1.86-.42-3.14-.7-1.58-.33-2.94-.66-4.08-1s-2.08-.75-2.81-1.24c-.74-.49-1.28-1.11-1.64-1.84s-.54-1.66-.54-2.79c0-.97,.24-1.87,.72-2.71s1.16-1.56,2.04-2.18c.88-.62,1.95-1.1,3.2-1.45s2.65-.53,4.19-.53c6.71,0,10.3,2.27,10.78,6.82h-6.48Z"/><path class="cls-1" d="M368.4,461.66c-.33,1.22-.85,2.3-1.56,3.23-.71,.94-1.56,1.73-2.56,2.37s-2.13,1.12-3.39,1.45c-1.26,.33-2.61,.49-4.04,.49-1.93,0-3.69-.27-5.28-.8-1.59-.53-2.96-1.3-4.09-2.31-1.14-1.01-2.02-2.24-2.65-3.69-.62-1.45-.94-3.1-.94-4.95s.3-3.44,.91-4.89c.61-1.45,1.46-2.68,2.56-3.69,1.1-1.02,2.42-1.79,3.94-2.33,1.53-.54,3.22-.81,5.07-.81s3.63,.27,5.17,.8,2.84,1.3,3.93,2.3c1.08,1,1.92,2.23,2.51,3.68,.59,1.45,.88,3.1,.88,4.95v1.76h-18.14c.33,1.77,1.04,3.09,2.14,3.97,1.09,.88,2.42,1.32,3.98,1.32,.5,0,1-.06,1.5-.19,.51-.12,.97-.31,1.41-.55,.43-.24,.81-.54,1.13-.89,.32-.35,.56-.76,.7-1.23h6.81Zm-6.53-7.1c-.42-1.38-1.11-2.41-2.07-3.09-.96-.69-2.1-1.03-3.42-1.03s-2.44,.34-3.42,1.03-1.67,1.72-2.1,3.09h11Z"/><path class="cls-1" d="M397.96,468.67h-7.78l-7.47-9.91-1.43,1.2v8.72h-6.48v-30.94h6.48v15.42l7.83-6.87h8.52l-10.45,8.67,10.78,13.71Z"/><path class="cls-1" d="M413.37,468.71c-.83,.17-1.59,.3-2.27,.38-.69,.08-1.33,.12-1.92,.12-1.53,0-2.74-.15-3.65-.46-.91-.3-1.6-.76-2.08-1.36s-.79-1.36-.92-2.26c-.14-.91-.21-1.96-.21-3.16v-11.04h-2.98v-4.64h2.98v-5.58h6.56v5.58h3.92v4.64h-3.92v11.2c0,.52,.03,.93,.08,1.24s.13,.55,.23,.73,.23,.29,.39,.34c.16,.05,.33,.08,.54,.08,.4,0,.88-.03,1.43-.08s1.16-.13,1.82-.22v4.5Z"/><path class="cls-1" d="M423.96,443.5h-6.45v-5.77h6.45v5.77Zm0,25.17h-6.45v-22.38h6.45v22.38Z"/><path class="cls-1" d="M442.38,445.75c1.91,0,3.63,.27,5.17,.8s2.84,1.3,3.93,2.3c1.08,1,1.92,2.23,2.51,3.68,.59,1.45,.88,3.1,.88,4.95s-.3,3.49-.9,4.95c-.6,1.45-1.44,2.68-2.52,3.69s-2.4,1.78-3.94,2.31c-1.54,.53-3.25,.8-5.13,.8s-3.55-.26-5.09-.79-2.85-1.28-3.94-2.27c-1.09-.99-1.94-2.22-2.55-3.68-.61-1.46-.91-3.13-.91-5s.3-3.49,.9-4.95,1.44-2.68,2.52-3.68c1.08-1,2.4-1.77,3.94-2.3,1.54-.53,3.25-.8,5.13-.8Zm0,18.77c.85,0,1.63-.15,2.34-.45,.72-.3,1.33-.74,1.83-1.34s.9-1.33,1.19-2.2,.43-1.9,.43-3.07-.14-2.2-.43-3.07-.68-1.61-1.19-2.19-1.12-1.03-1.83-1.32c-.72-.3-1.5-.45-2.34-.45s-1.65,.15-2.37,.45-1.33,.74-1.83,1.32c-.51,.59-.9,1.32-1.19,2.19-.29,.88-.43,1.9-.43,3.07s.14,2.2,.43,3.07c.28,.88,.68,1.61,1.19,2.2,.51,.59,1.12,1.04,1.83,1.34s1.51,.45,2.37,.45Z"/><path class="cls-1" d="M467.27,447.6c1.88-1.23,3.92-1.85,6.12-1.85,6.23,0,9.35,2.85,9.35,8.55v14.37h-6.56v-14.2c0-1.39-.26-2.38-.79-2.98-.52-.59-1.39-.89-2.6-.89-1.76,0-3.6,.91-5.51,2.72v15.35h-6.48v-22.38h6.48v1.31Z"/><path class="cls-1" d="M513.18,461.66c-.33,1.22-.85,2.3-1.56,3.23s-1.56,1.73-2.56,2.37c-1,.64-2.13,1.12-3.39,1.45s-2.61,.49-4.04,.49c-1.93,0-3.69-.27-5.28-.8s-2.95-1.3-4.09-2.31-2.02-2.24-2.65-3.69c-.63-1.45-.94-3.1-.94-4.95s.3-3.44,.91-4.89,1.46-2.68,2.56-3.69,2.42-1.79,3.94-2.33,3.22-.81,5.07-.81,3.63,.27,5.17,.8c1.53,.53,2.84,1.3,3.93,2.3,1.08,1,1.92,2.23,2.51,3.68,.59,1.45,.88,3.1,.88,4.95v1.76h-18.14c.33,1.77,1.04,3.09,2.14,3.97s2.42,1.32,3.98,1.32c.5,0,1-.06,1.5-.19,.5-.12,.97-.31,1.41-.55,.43-.24,.81-.54,1.13-.89s.56-.76,.7-1.23h6.81Zm-6.53-7.1c-.42-1.38-1.11-2.41-2.07-3.09-.96-.69-2.1-1.03-3.42-1.03s-2.44,.34-3.42,1.03-1.67,1.72-2.1,3.09h11Z"/><path class="cls-1" d="M526.05,447.6c1.88-1.23,3.92-1.85,6.12-1.85,6.23,0,9.35,2.85,9.35,8.55v14.37h-6.56v-14.2c0-1.39-.26-2.38-.79-2.98-.52-.59-1.39-.89-2.61-.89-1.76,0-3.6,.91-5.51,2.72v15.35h-6.48v-22.38h6.48v1.31Z"/><path class="cls-1" d="M562.47,452.57c-.44-1.42-1.77-2.13-4-2.13-.57,0-1.09,.04-1.57,.12-.48,.08-.9,.2-1.25,.35s-.64,.35-.84,.59c-.2,.23-.3,.5-.3,.8,0,.23,.05,.43,.15,.6,.1,.16,.35,.32,.75,.48,.39,.16,.98,.32,1.75,.5,.77,.18,1.82,.41,3.14,.69,1.62,.33,3.02,.67,4.2,1.03,1.19,.36,2.17,.8,2.96,1.34,.79,.53,1.38,1.18,1.76,1.95,.39,.77,.58,1.72,.58,2.86,0,1.06-.26,2.05-.77,2.95-.51,.91-1.24,1.7-2.18,2.37s-2.07,1.2-3.4,1.58c-1.33,.38-2.83,.57-4.48,.57-6.91,0-10.75-2.53-11.52-7.59h6.62c.35,1.94,1.97,2.91,4.85,2.91,1.43,0,2.52-.23,3.27-.7s1.12-1.04,1.12-1.71c0-.31-.08-.57-.23-.79s-.46-.41-.92-.59c-.46-.18-1.09-.36-1.9-.55-.81-.19-1.86-.42-3.14-.7-1.58-.33-2.94-.66-4.08-1-1.14-.34-2.08-.75-2.81-1.24-.74-.49-1.28-1.11-1.64-1.84s-.54-1.66-.54-2.79c0-.97,.24-1.87,.72-2.71,.48-.84,1.16-1.56,2.04-2.18,.88-.62,1.95-1.1,3.2-1.45,1.25-.35,2.65-.53,4.19-.53,6.71,0,10.3,2.27,10.78,6.82h-6.48Z"/><path class="cls-1" d="M625.09,468.67h-7.58l-3.97-8.86h-12.74l-3.8,8.86h-7.2l14.01-30.96h6.45l14.83,30.96Zm-13.67-13.76l-4.41-9.82-4.16,9.82h8.58Z"/><path class="cls-1" d="M643.73,451.77c-.57-.2-1.11-.36-1.61-.46-.5-.1-1.2-.15-2.08-.15s-1.69,.19-2.43,.57-1.46,.97-2.18,1.77v15.16h-6.48v-22.38h6.48v1.29c1.6-1.22,3.35-1.83,5.27-1.83,.35,0,.77,.02,1.25,.07s1.08,.13,1.78,.26v5.7Z"/><path class="cls-1" d="M654.34,447.41c1.73-1.11,3.68-1.66,5.84-1.66,1.76,0,3.34,.28,4.71,.83,1.38,.55,2.54,1.34,3.49,2.34,.95,1.01,1.66,2.22,2.15,3.64,.49,1.42,.73,3,.73,4.73s-.29,3.43-.87,4.9c-.58,1.47-1.38,2.72-2.4,3.76-1.02,1.04-2.22,1.84-3.6,2.4s-2.88,.84-4.49,.84c-1.1,0-2.1-.1-2.99-.29s-1.75-.5-2.58-.93v.68h-6.48v-30.94h6.48v9.68Zm0,15.12c.81,.66,1.65,1.15,2.54,1.49,.88,.34,1.81,.5,2.79,.5,1.51,0,2.71-.61,3.6-1.83s1.34-3.02,1.34-5.39-.42-4-1.27-5.14c-.85-1.15-2.01-1.72-3.5-1.72-1.89,0-3.72,.98-5.49,2.95v9.14Z"/><path class="cls-1" d="M700.19,461.66c-.33,1.22-.85,2.3-1.56,3.23s-1.56,1.73-2.56,2.37c-1,.64-2.13,1.12-3.39,1.45s-2.61,.49-4.04,.49c-1.93,0-3.69-.27-5.28-.8s-2.95-1.3-4.09-2.31-2.02-2.24-2.65-3.69c-.63-1.45-.94-3.1-.94-4.95s.3-3.44,.91-4.89,1.46-2.68,2.56-3.69,2.42-1.79,3.94-2.33,3.22-.81,5.07-.81,3.63,.27,5.17,.8c1.53,.53,2.84,1.3,3.93,2.3,1.08,1,1.92,2.23,2.51,3.68,.59,1.45,.88,3.1,.88,4.95v1.76h-18.14c.33,1.77,1.04,3.09,2.14,3.97s2.42,1.32,3.98,1.32c.5,0,1-.06,1.5-.19,.5-.12,.97-.31,1.41-.55,.43-.24,.81-.54,1.13-.89s.56-.76,.7-1.23h6.81Zm-6.53-7.1c-.42-1.38-1.11-2.41-2.07-3.09-.96-.69-2.1-1.03-3.42-1.03s-2.44,.34-3.42,1.03-1.67,1.72-2.1,3.09h11Z"/><path class="cls-1" d="M717.73,468.71c-.83,.17-1.58,.3-2.27,.38s-1.33,.12-1.92,.12c-1.53,0-2.74-.15-3.65-.46-.91-.3-1.6-.76-2.08-1.36-.48-.6-.79-1.36-.92-2.26s-.21-1.96-.21-3.16v-11.04h-2.98v-4.64h2.98v-5.58h6.56v5.58h3.92v4.64h-3.92v11.2c0,.52,.03,.93,.08,1.24,.06,.31,.13,.55,.23,.73,.1,.17,.23,.29,.39,.34s.34,.08,.54,.08c.4,0,.88-.03,1.43-.08s1.16-.13,1.82-.22v4.5Z"/><path class="cls-1" d="M735.37,452.57c-.44-1.42-1.77-2.13-4-2.13-.57,0-1.09,.04-1.57,.12-.48,.08-.9,.2-1.25,.35s-.64,.35-.84,.59c-.2,.23-.3,.5-.3,.8,0,.23,.05,.43,.15,.6,.1,.16,.35,.32,.75,.48,.39,.16,.98,.32,1.75,.5,.77,.18,1.82,.41,3.14,.69,1.62,.33,3.02,.67,4.2,1.03,1.19,.36,2.17,.8,2.96,1.34,.79,.53,1.38,1.18,1.76,1.95,.39,.77,.58,1.72,.58,2.86,0,1.06-.26,2.05-.77,2.95-.51,.91-1.24,1.7-2.18,2.37s-2.07,1.2-3.4,1.58c-1.33,.38-2.83,.57-4.48,.57-6.91,0-10.75-2.53-11.52-7.59h6.62c.35,1.94,1.97,2.91,4.85,2.91,1.43,0,2.52-.23,3.27-.7s1.12-1.04,1.12-1.71c0-.31-.08-.57-.23-.79s-.46-.41-.92-.59c-.46-.18-1.09-.36-1.9-.55-.81-.19-1.86-.42-3.14-.7-1.58-.33-2.94-.66-4.08-1-1.14-.34-2.08-.75-2.81-1.24-.74-.49-1.28-1.11-1.64-1.84s-.54-1.66-.54-2.79c0-.97,.24-1.87,.72-2.71,.48-.84,1.16-1.56,2.04-2.18,.88-.62,1.95-1.1,3.2-1.45,1.25-.35,2.65-.53,4.19-.53,6.71,0,10.3,2.27,10.78,6.82h-6.48Z"/><path class="cls-1" d="M783.62,468.67h-6.56v-14.2c0-1.41-.2-2.4-.61-2.99s-1.08-.88-2.04-.88c-1.62,0-3.32,.9-5.1,2.7v15.38h-6.45v-14.2c0-1.41-.21-2.4-.62-2.99-.41-.59-1.1-.88-2.05-.88-1.6,0-3.29,.9-5.07,2.7v15.38h-6.48v-22.38h6.48v1.29c.9-.64,1.82-1.11,2.77-1.39,.95-.29,1.94-.43,2.99-.43,1.71,0,3.15,.25,4.31,.75s2.09,1.25,2.77,2.25c.74-.66,1.41-1.18,2.03-1.57,.62-.39,1.2-.69,1.75-.9,.55-.21,1.09-.35,1.63-.42s1.08-.11,1.65-.11c5.73,0,8.6,2.85,8.6,8.55v14.37Z"/><path class="cls-1" d="M801.85,445.75c1.69,0,3.21,.13,4.56,.39,1.35,.26,2.5,.71,3.45,1.37,.95,.66,1.67,1.55,2.18,2.67s.76,2.55,.76,4.29v14.2h-6.45v-1.17c-1.07,.55-2.22,.97-3.46,1.27-1.24,.3-2.57,.45-3.98,.45-1.32,0-2.55-.17-3.69-.5s-2.13-.81-2.96-1.42c-.84-.61-1.49-1.34-1.97-2.18-.48-.84-.72-1.77-.72-2.79,0-5.42,5.25-8.13,15.74-8.13h1.05c-.02-.61-.08-1.14-.18-1.61-.1-.46-.32-.85-.65-1.17-.33-.32-.81-.56-1.43-.73s-1.46-.25-2.51-.25c-1.31,0-2.34,.17-3.1,.52s-1.28,.99-1.56,1.95h-6.64c.77-4.77,4.63-7.15,11.58-7.15Zm4.49,12.96h-1.9c-5.51,0-8.27,1.14-8.27,3.42,0,.75,.36,1.34,1.08,1.76,.72,.42,1.68,.63,2.89,.63s2.38-.21,3.5-.62,2.02-1.02,2.7-1.82v-3.38Z"/><path class="cls-1" d="M835.01,451.77c-.57-.2-1.11-.36-1.61-.46-.5-.1-1.2-.15-2.08-.15s-1.69,.19-2.43,.57-1.46,.97-2.18,1.77v15.16h-6.48v-22.38h6.48v1.29c1.6-1.22,3.35-1.83,5.27-1.83,.35,0,.77,.02,1.25,.07s1.08,.13,1.78,.26v5.7Z"/><path class="cls-1" d="M862.31,468.67h-7.78l-7.47-9.91-1.43,1.2v8.72h-6.48v-30.94h6.48v15.42l7.83-6.87h8.52l-10.45,8.67,10.78,13.71Z"/><path class="cls-1" d="M873.06,447.6c1.88-1.23,3.92-1.85,6.12-1.85,6.23,0,9.35,2.85,9.35,8.55v14.37h-6.56v-14.2c0-1.39-.26-2.38-.79-2.98-.52-.59-1.39-.89-2.61-.89-1.76,0-3.6,.91-5.51,2.72v15.35h-6.48v-22.38h6.48v1.31Z"/><path class="cls-1" d="M906.75,445.75c1.69,0,3.21,.13,4.56,.39,1.35,.26,2.5,.71,3.45,1.37,.95,.66,1.67,1.55,2.18,2.67s.76,2.55,.76,4.29v14.2h-6.45v-1.17c-1.07,.55-2.22,.97-3.46,1.27-1.24,.3-2.57,.45-3.98,.45-1.32,0-2.55-.17-3.69-.5s-2.13-.81-2.96-1.42c-.84-.61-1.49-1.34-1.97-2.18-.48-.84-.72-1.77-.72-2.79,0-5.42,5.25-8.13,15.74-8.13h1.05c-.02-.61-.08-1.14-.18-1.61-.1-.46-.32-.85-.65-1.17-.33-.32-.81-.56-1.43-.73s-1.46-.25-2.51-.25c-1.31,0-2.34,.17-3.1,.52s-1.28,.99-1.56,1.95h-6.64c.77-4.77,4.63-7.15,11.58-7.15Zm4.49,12.96h-1.9c-5.51,0-8.27,1.14-8.27,3.42,0,.75,.36,1.34,1.08,1.76,.72,.42,1.68,.63,2.89,.63s2.38-.21,3.5-.62,2.02-1.02,2.7-1.82v-3.38Z"/><path class="cls-1" d="M940.61,467.5c-.88,.55-1.81,.97-2.77,1.27-.97,.3-1.99,.45-3.07,.45-1.8,0-3.4-.28-4.78-.83s-2.55-1.34-3.49-2.36-1.65-2.24-2.14-3.67c-.49-1.43-.73-3.01-.73-4.75,0-1.84,.29-3.5,.87-4.96s1.38-2.7,2.4-3.73c1.02-1.02,2.22-1.81,3.61-2.36,1.39-.55,2.88-.82,4.48-.82,1.05,0,2.04,.1,2.98,.3,.94,.2,1.82,.5,2.65,.89v-9.21h6.45v30.94h-6.45v-1.17Zm0-15.07c-1.67-1.33-3.46-1.99-5.35-1.99-1.51,0-2.71,.59-3.61,1.78s-1.35,2.98-1.35,5.39c0,2.28,.42,4,1.27,5.14,.84,1.15,2.02,1.72,3.53,1.72,1.93,0,3.77-.98,5.51-2.93v-9.12Z"/><path class="cls-1" d="M968.02,452.57c-.44-1.42-1.77-2.13-4-2.13-.57,0-1.09,.04-1.57,.12-.48,.08-.9,.2-1.25,.35s-.64,.35-.84,.59c-.2,.23-.3,.5-.3,.8,0,.23,.05,.43,.15,.6,.1,.16,.35,.32,.75,.48,.39,.16,.98,.32,1.75,.5,.77,.18,1.82,.41,3.14,.69,1.62,.33,3.02,.67,4.2,1.03,1.19,.36,2.17,.8,2.96,1.34,.79,.53,1.38,1.18,1.76,1.95,.39,.77,.58,1.72,.58,2.86,0,1.06-.26,2.05-.77,2.95-.51,.91-1.24,1.7-2.18,2.37s-2.07,1.2-3.4,1.58c-1.33,.38-2.83,.57-4.48,.57-6.91,0-10.75-2.53-11.52-7.59h6.62c.35,1.94,1.97,2.91,4.85,2.91,1.43,0,2.52-.23,3.27-.7s1.12-1.04,1.12-1.71c0-.31-.08-.57-.23-.79s-.46-.41-.92-.59c-.46-.18-1.09-.36-1.9-.55-.81-.19-1.86-.42-3.14-.7-1.58-.33-2.94-.66-4.08-1-1.14-.34-2.08-.75-2.81-1.24-.74-.49-1.28-1.11-1.64-1.84s-.54-1.66-.54-2.79c0-.97,.24-1.87,.72-2.71,.48-.84,1.16-1.56,2.04-2.18,.88-.62,1.95-1.1,3.2-1.45,1.25-.35,2.65-.53,4.19-.53,6.71,0,10.3,2.27,10.78,6.82h-6.48Z"/><path class="cls-1" d="M987.37,470.75c.39,1.55,1.74,2.32,4.05,2.32,1.56,0,2.79-.45,3.68-1.34s1.42-2.28,1.58-4.17c-.88,.55-1.8,.96-2.74,1.23s-1.96,.41-3.05,.41c-1.8,0-3.4-.28-4.78-.83s-2.55-1.34-3.49-2.36-1.65-2.24-2.14-3.67c-.49-1.43-.73-3.01-.73-4.75,0-1.84,.29-3.5,.87-4.96s1.38-2.7,2.4-3.73c1.02-1.02,2.22-1.81,3.61-2.36,1.39-.55,2.88-.82,4.48-.82,1.05,0,2.04,.1,2.98,.3,.94,.2,1.82,.5,2.65,.89v-.66h6.45v20.62c0,7.23-3.88,10.85-11.63,10.85-1.58,0-3.01-.16-4.29-.48s-2.39-.78-3.34-1.38c-.95-.6-1.71-1.34-2.27-2.2-.57-.87-.92-1.85-1.05-2.94h6.75Zm9.37-18.33c-1.67-1.33-3.46-1.99-5.35-1.99-1.51,0-2.71,.59-3.61,1.78s-1.35,2.98-1.35,5.39c0,2.28,.42,4,1.27,5.17,.84,1.16,2.02,1.75,3.53,1.75,1.93,0,3.77-.98,5.51-2.93v-9.16Z"/><path class="cls-1" d="M1025.42,451.77c-.57-.2-1.11-.36-1.61-.46-.5-.1-1.2-.15-2.08-.15s-1.69,.19-2.43,.57-1.46,.97-2.18,1.77v15.16h-6.48v-22.38h6.48v1.29c1.6-1.22,3.35-1.83,5.27-1.83,.35,0,.77,.02,1.25,.07s1.08,.13,1.78,.26v5.7Z"/><path class="cls-1" d="M1045.08,467.35c-1.86,1.23-3.92,1.85-6.18,1.85-6.23,0-9.35-2.84-9.35-8.53v-14.39h6.59v14.2c0,1.39,.27,2.38,.8,2.98,.53,.59,1.4,.89,2.59,.89,1.98,0,3.83-.9,5.54-2.7v-15.38h6.48v22.38h-6.48v-1.31Z"/><path class="cls-1" d="M1065.48,447.41c1.73-1.11,3.68-1.66,5.84-1.66,1.76,0,3.34,.28,4.71,.83,1.38,.55,2.54,1.34,3.49,2.34,.95,1.01,1.66,2.22,2.15,3.64,.49,1.42,.73,3,.73,4.73s-.29,3.43-.87,4.9c-.58,1.47-1.38,2.72-2.4,3.76-1.02,1.04-2.22,1.84-3.6,2.4s-2.88,.84-4.49,.84c-1.1,0-2.1-.09-2.99-.27s-1.75-.48-2.58-.9v9.26h-6.48v-31.01h6.48v1.12Zm0,15.16c1.62,1.3,3.39,1.95,5.32,1.95,1.51,0,2.71-.61,3.6-1.83s1.34-3.02,1.34-5.39-.42-4-1.27-5.14c-.85-1.15-2.01-1.72-3.5-1.72-1.89,0-3.72,.98-5.49,2.95v9.19Z"/><path class="cls-1" d="M1094.81,447.41c1.73-1.11,3.68-1.66,5.84-1.66,1.76,0,3.34,.28,4.71,.83,1.38,.55,2.54,1.34,3.49,2.34,.95,1.01,1.66,2.22,2.15,3.64,.49,1.42,.73,3,.73,4.73s-.29,3.43-.87,4.9c-.58,1.47-1.38,2.72-2.4,3.76-1.02,1.04-2.22,1.84-3.6,2.4s-2.88,.84-4.49,.84c-1.1,0-2.1-.09-2.99-.27s-1.75-.48-2.58-.9v9.26h-6.48v-31.01h6.48v1.12Zm0,15.16c1.62,1.3,3.39,1.95,5.32,1.95,1.51,0,2.71-.61,3.6-1.83s1.34-3.02,1.34-5.39-.42-4-1.27-5.14c-.85-1.15-2.01-1.72-3.5-1.72-1.89,0-3.72,.98-5.49,2.95v9.19Z"/></g></svg>